<svg width="177" height="63" viewBox="0 0 177 63" fill="none" xmlns="http://www.w3.org/2000/svg">
<path d="M51.1629 0C54.1527 0 57.0201 1.18771 59.1342 3.30184C61.2484 5.41597 62.4361 8.28335 62.4361 11.2732V51.1629C62.4361 54.1527 61.2484 57.0201 59.1342 59.1342C57.0201 61.2484 54.1527 62.4361 51.1629 62.4361H11.2732C8.28335 62.4361 5.41597 61.2484 3.30184 59.1342C1.18771 57.0201 0 54.1527 0 51.1629V11.2732C0 8.28335 1.18771 5.41597 3.30184 3.30184C5.41597 1.18771 8.28335 0 11.2732 0H51.1629ZM57.2331 19.0777H5.20301V51.1629C5.20301 54.5136 7.92245 57.2331 11.2732 57.2331H51.1629C52.7728 57.2331 54.3168 56.5935 55.4552 55.4552C56.5935 54.3168 57.2331 52.7728 57.2331 51.1629V19.0777ZM51.1629 5.20301H11.2732C9.66327 5.20301 8.1193 5.84254 6.98092 6.98092C5.84254 8.1193 5.20301 9.66327 5.20301 11.2732V13.8747H57.2331V11.2732C57.2331 9.66327 56.5935 8.1193 55.4552 6.98092C54.3168 5.84254 52.7728 5.20301 51.1629 5.20301Z" fill="#104779"/>
<line x1="11.0564" y1="9.75587" x2="51.3797" y2="9.75587" stroke="#104779" stroke-width="1.30075" stroke-linecap="round"/>
<rect x="9.10529" y="26.0151" width="9.10526" height="9.10526" rx="1.30075" fill="#104779"/>
<rect opacity="0.5" x="20.812" y="26.0151" width="9.10526" height="9.10526" rx="1.30075" fill="#165EA2"/>
<rect opacity="0.5" x="32.5188" y="26.0151" width="9.10526" height="9.10526" rx="1.30075" fill="#165EA2"/>
<rect opacity="0.5" x="44.2256" y="26.0151" width="9.10526" height="9.10526" rx="1.30075" fill="#165EA2"/>
<path d="M70.0909 19.3008V6.05676H75.3161C76.3206 6.05676 77.1764 6.24861 77.8834 6.63231C78.5904 7.0117 79.1293 7.53982 79.5001 8.21668C79.8752 8.88922 80.0627 9.66524 80.0627 10.5447C80.0627 11.4242 79.873 12.2002 79.4936 12.8728C79.1143 13.5453 78.5646 14.0691 77.8446 14.4442C77.129 14.8193 76.2624 15.0068 75.245 15.0068H71.9145V12.7628H74.7923C75.3312 12.7628 75.7752 12.6701 76.1244 12.4848C76.478 12.2951 76.7409 12.0342 76.9134 11.7023C77.0901 11.366 77.1785 10.9802 77.1785 10.5447C77.1785 10.105 77.0901 9.72129 76.9134 9.39364C76.7409 9.06167 76.478 8.80516 76.1244 8.62409C75.7709 8.4387 75.3226 8.34601 74.7793 8.34601H72.891V19.3008H70.0909ZM85.6502 19.4948C84.6284 19.4948 83.7489 19.2878 83.0117 18.874C82.2788 18.4558 81.714 17.8652 81.3174 17.1021C80.9208 16.3347 80.7225 15.4272 80.7225 14.3795C80.7225 13.3578 80.9208 12.4611 81.3174 11.6894C81.714 10.9176 82.2723 10.3162 82.9923 9.88511C83.7166 9.45399 84.5659 9.23843 85.5402 9.23843C86.1955 9.23843 86.8056 9.34406 87.3703 9.55531C87.9394 9.76224 88.4352 10.0748 88.8577 10.493C89.2845 10.9112 89.6165 11.4371 89.8536 12.0709C90.0907 12.7003 90.2093 13.4375 90.2093 14.2825V15.0392H81.8218V13.3319H87.6161C87.6161 12.9353 87.5299 12.5839 87.3574 12.2778C87.185 11.9717 86.9457 11.7325 86.6396 11.56C86.3378 11.3833 85.9864 11.2949 85.5855 11.2949C85.1673 11.2949 84.7966 11.3919 84.4732 11.5859C84.1542 11.7756 83.9041 12.0321 83.7231 12.3554C83.542 12.6745 83.4493 13.0301 83.445 13.4225V15.0456C83.445 15.5371 83.5355 15.9618 83.7166 16.3196C83.902 16.6774 84.1628 16.9533 84.4991 17.1473C84.8354 17.3413 85.2341 17.4383 85.6954 17.4383C86.0015 17.4383 86.2818 17.3952 86.5361 17.309C86.7905 17.2228 87.0082 17.0934 87.1893 16.921C87.3703 16.7485 87.5083 16.5373 87.6031 16.2873L90.1511 16.4554C90.0217 17.0676 89.7566 17.6022 89.3557 18.0592C88.959 18.5118 88.446 18.8653 87.8166 19.1197C87.1914 19.3698 86.4693 19.4948 85.6502 19.4948ZM94.2156 13.5583V19.3008H91.4607V9.36777H94.0863V11.1203H94.2027C94.4225 10.5426 94.7911 10.0856 95.3085 9.74931C95.8258 9.40872 96.4531 9.23843 97.1903 9.23843C97.8801 9.23843 98.4815 9.38932 98.9946 9.69111C99.5076 9.99289 99.9064 10.424 100.191 10.9845C100.475 11.5406 100.618 12.2045 100.618 12.9762V19.3008H97.8629V13.4677C97.8672 12.8598 97.712 12.3856 97.3973 12.045C97.0825 11.7001 96.6493 11.5277 96.0974 11.5277C95.7267 11.5277 95.399 11.6074 95.1145 11.767C94.8342 11.9265 94.6144 12.1593 94.4549 12.4654C94.2997 12.7672 94.2199 13.1314 94.2156 13.5583ZM102.243 9.36777H104.997V19.7923C104.997 20.5597 104.847 21.1805 104.545 21.6547C104.243 22.1289 103.81 22.476 103.245 22.6959C102.685 22.9157 102.014 23.0257 101.234 23.0257C101.139 23.0257 101.048 23.0235 100.962 23.0192C100.872 23.0192 100.777 23.017 100.678 23.0127V20.8593C100.751 20.8636 100.816 20.8657 100.872 20.8657C100.923 20.8701 100.979 20.8722 101.04 20.8722C101.484 20.8722 101.794 20.7774 101.971 20.5877C102.152 20.4023 102.243 20.1221 102.243 19.747V9.36777ZM103.614 8.08734C103.208 8.08734 102.859 7.95154 102.566 7.67993C102.273 7.40401 102.126 7.07421 102.126 6.69051C102.126 6.31112 102.273 5.98563 102.566 5.71402C102.859 5.43811 103.208 5.30015 103.614 5.30015C104.027 5.30015 104.379 5.43811 104.668 5.71402C104.961 5.98563 105.107 6.31112 105.107 6.69051C105.107 7.07421 104.961 7.40401 104.668 7.67993C104.379 7.95154 104.027 8.08734 103.614 8.08734ZM109.49 19.4883C108.857 19.4883 108.292 19.3784 107.796 19.1585C107.3 18.9343 106.908 18.6045 106.619 18.1691C106.335 17.7293 106.192 17.1818 106.192 16.5265C106.192 15.9747 106.294 15.5112 106.496 15.1362C106.699 14.7611 106.975 14.4593 107.324 14.2308C107.673 14.0023 108.07 13.8299 108.514 13.7135C108.962 13.5971 109.432 13.5151 109.924 13.4677C110.501 13.4074 110.967 13.3513 111.321 13.2996C111.674 13.2435 111.931 13.1616 112.09 13.0538C112.25 12.9461 112.329 12.7866 112.329 12.5753V12.5365C112.329 12.1269 112.2 11.8101 111.941 11.5859C111.687 11.3617 111.325 11.2496 110.855 11.2496C110.359 11.2496 109.965 11.3595 109.672 11.5794C109.378 11.795 109.184 12.0666 109.089 12.3942L106.542 12.1873C106.671 11.5837 106.925 11.0621 107.305 10.6223C107.684 10.1783 108.173 9.83769 108.773 9.60057C109.376 9.35915 110.075 9.23843 110.868 9.23843C111.42 9.23843 111.948 9.3031 112.452 9.43244C112.961 9.56177 113.411 9.76224 113.804 10.0338C114.2 10.3055 114.513 10.6547 114.741 11.0815C114.97 11.504 115.084 12.0105 115.084 12.6012V19.3008H112.472V17.9234H112.394C112.235 18.2338 112.021 18.5075 111.754 18.7446C111.487 18.9774 111.165 19.1607 110.79 19.2943C110.415 19.4237 109.982 19.4883 109.49 19.4883ZM110.279 17.5871C110.685 17.5871 111.042 17.5073 111.353 17.3478C111.663 17.184 111.907 16.9641 112.084 16.6882C112.26 16.4123 112.349 16.0997 112.349 15.7505V14.6964C112.263 14.7525 112.144 14.8042 111.993 14.8516C111.847 14.8947 111.681 14.9357 111.495 14.9745C111.31 15.009 111.124 15.0413 110.939 15.0715C110.754 15.0974 110.585 15.1211 110.435 15.1426C110.111 15.19 109.829 15.2655 109.587 15.369C109.346 15.4724 109.158 15.6125 109.025 15.7893C108.891 15.9618 108.824 16.1773 108.824 16.436C108.824 16.8111 108.96 17.0978 109.232 17.2961C109.508 17.4901 109.857 17.5871 110.279 17.5871ZM120.335 19.4625C119.581 19.4625 118.898 19.2684 118.285 18.8804C117.678 18.4881 117.195 17.9126 116.837 17.1538C116.483 16.3907 116.307 15.4552 116.307 14.3472C116.307 13.2091 116.49 12.2627 116.856 11.5083C117.223 10.7495 117.71 10.1826 118.318 9.80751C118.93 9.42813 119.6 9.23843 120.329 9.23843C120.885 9.23843 121.349 9.33328 121.719 9.52297C122.094 9.70835 122.396 9.94116 122.625 10.2214C122.857 10.4973 123.034 10.7689 123.155 11.0362H123.239V6.05676H125.987V19.3008H123.271V17.7099H123.155C123.026 17.9859 122.842 18.2596 122.605 18.5312C122.372 18.7985 122.069 19.0206 121.693 19.1973C121.323 19.3741 120.87 19.4625 120.335 19.4625ZM121.208 17.2702C121.652 17.2702 122.028 17.1495 122.334 16.9081C122.644 16.6623 122.881 16.3196 123.045 15.8798C123.213 15.4401 123.297 14.9249 123.297 14.3343C123.297 13.7436 123.215 13.2306 123.051 12.7952C122.888 12.3597 122.651 12.0235 122.34 11.7864C122.03 11.5492 121.652 11.4307 121.208 11.4307C120.756 11.4307 120.374 11.5535 120.064 11.7993C119.753 12.045 119.518 12.3856 119.359 12.821C119.199 13.2565 119.12 13.7609 119.12 14.3343C119.12 14.912 119.199 15.4229 119.359 15.8669C119.523 16.3067 119.758 16.6515 120.064 16.9016C120.374 17.1473 120.756 17.2702 121.208 17.2702ZM129.666 19.3008L126.962 9.36777H129.75L131.289 16.0415H131.379L132.983 9.36777H135.718L137.348 16.0027H137.432L138.945 9.36777H141.726L139.029 19.3008H136.113L134.406 13.0538H134.283L132.576 19.3008H129.666ZM145.482 19.4883C144.848 19.4883 144.283 19.3784 143.788 19.1585C143.292 18.9343 142.899 18.6045 142.611 18.1691C142.326 17.7293 142.184 17.1818 142.184 16.5265C142.184 15.9747 142.285 15.5112 142.488 15.1362C142.69 14.7611 142.966 14.4593 143.315 14.2308C143.665 14.0023 144.061 13.8299 144.505 13.7135C144.954 13.5971 145.424 13.5151 145.915 13.4677C146.493 13.4074 146.958 13.3513 147.312 13.2996C147.665 13.2435 147.922 13.1616 148.081 13.0538C148.241 12.9461 148.321 12.7866 148.321 12.5753V12.5365C148.321 12.1269 148.191 11.8101 147.933 11.5859C147.678 11.3617 147.316 11.2496 146.846 11.2496C146.351 11.2496 145.956 11.3595 145.663 11.5794C145.37 11.795 145.176 12.0666 145.081 12.3942L142.533 12.1873C142.662 11.5837 142.917 11.0621 143.296 10.6223C143.675 10.1783 144.165 9.83769 144.764 9.60057C145.368 9.35915 146.066 9.23843 146.859 9.23843C147.411 9.23843 147.939 9.3031 148.444 9.43244C148.952 9.56177 149.403 9.76224 149.795 10.0338C150.192 10.3055 150.504 10.6547 150.733 11.0815C150.961 11.504 151.076 12.0105 151.076 12.6012V19.3008H148.463V17.9234H148.385C148.226 18.2338 148.013 18.5075 147.745 18.7446C147.478 18.9774 147.157 19.1607 146.782 19.2943C146.407 19.4237 145.973 19.4883 145.482 19.4883ZM146.271 17.5871C146.676 17.5871 147.034 17.5073 147.344 17.3478C147.655 17.184 147.898 16.9641 148.075 16.6882C148.252 16.4123 148.34 16.0997 148.34 15.7505V14.6964C148.254 14.7525 148.135 14.8042 147.984 14.8516C147.838 14.8947 147.672 14.9357 147.487 14.9745C147.301 15.009 147.116 15.0413 146.93 15.0715C146.745 15.0974 146.577 15.1211 146.426 15.1426C146.103 15.19 145.82 15.2655 145.579 15.369C145.337 15.4724 145.15 15.6125 145.016 15.7893C144.883 15.9618 144.816 16.1773 144.816 16.436C144.816 16.8111 144.952 17.0978 145.223 17.2961C145.499 17.4901 145.848 17.5871 146.271 17.5871ZM155.421 6.05676V19.3008H152.667V6.05676H155.421ZM159.914 19.4883C159.281 19.4883 158.716 19.3784 158.22 19.1585C157.724 18.9343 157.332 18.6045 157.043 18.1691C156.759 17.7293 156.616 17.1818 156.616 16.5265C156.616 15.9747 156.718 15.5112 156.92 15.1362C157.123 14.7611 157.399 14.4593 157.748 14.2308C158.097 14.0023 158.494 13.8299 158.938 13.7135C159.386 13.5971 159.856 13.5151 160.348 13.4677C160.925 13.4074 161.391 13.3513 161.744 13.2996C162.098 13.2435 162.355 13.1616 162.514 13.0538C162.674 12.9461 162.753 12.7866 162.753 12.5753V12.5365C162.753 12.1269 162.624 11.8101 162.365 11.5859C162.111 11.3617 161.749 11.2496 161.279 11.2496C160.783 11.2496 160.389 11.3595 160.095 11.5794C159.802 11.795 159.608 12.0666 159.513 12.3942L156.966 12.1873C157.095 11.5837 157.349 11.0621 157.729 10.6223C158.108 10.1783 158.597 9.83769 159.197 9.60057C159.8 9.35915 160.499 9.23843 161.292 9.23843C161.844 9.23843 162.372 9.3031 162.876 9.43244C163.385 9.56177 163.835 9.76224 164.228 10.0338C164.624 10.3055 164.937 10.6547 165.165 11.0815C165.394 11.504 165.508 12.0105 165.508 12.6012V19.3008H162.896V17.9234H162.818C162.658 18.2338 162.445 18.5075 162.178 18.7446C161.91 18.9774 161.589 19.1607 161.214 19.2943C160.839 19.4237 160.406 19.4883 159.914 19.4883ZM160.703 17.5871C161.109 17.5871 161.466 17.5073 161.777 17.3478C162.087 17.184 162.331 16.9641 162.508 16.6882C162.684 16.4123 162.773 16.0997 162.773 15.7505V14.6964C162.686 14.7525 162.568 14.8042 162.417 14.8516C162.27 14.8947 162.104 14.9357 161.919 14.9745C161.734 15.009 161.548 15.0413 161.363 15.0715C161.178 15.0974 161.009 15.1211 160.859 15.1426C160.535 15.19 160.253 15.2655 160.011 15.369C159.77 15.4724 159.582 15.6125 159.449 15.7893C159.315 15.9618 159.248 16.1773 159.248 16.436C159.248 16.8111 159.384 17.0978 159.656 17.2961C159.932 17.4901 160.281 17.5871 160.703 17.5871ZM169.854 13.5583V19.3008H167.099V9.36777H169.725V11.1203H169.841C170.061 10.5426 170.43 10.0856 170.947 9.74931C171.464 9.40872 172.092 9.23843 172.829 9.23843C173.519 9.23843 174.12 9.38932 174.633 9.69111C175.146 9.99289 175.545 10.424 175.829 10.9845C176.114 11.5406 176.256 12.2045 176.256 12.9762V19.3008H173.501V13.4677C173.506 12.8598 173.35 12.3856 173.036 12.045C172.721 11.7001 172.288 11.5277 171.736 11.5277C171.365 11.5277 171.037 11.6074 170.753 11.767C170.473 11.9265 170.253 12.1593 170.093 12.4654C169.938 12.7672 169.858 13.1314 169.854 13.5583Z" fill="#104779"/>
<path d="M70.345 52.6089V25.1749H80.6328C82.7403 25.1749 84.5085 25.541 85.9374 26.2733C87.3752 27.0056 88.4602 28.0326 89.1925 29.3543C89.9337 30.667 90.3043 32.1986 90.3043 33.9489C90.3043 35.7082 89.9293 37.2353 89.1791 38.5302C88.4379 39.8162 87.3439 40.8119 85.8972 41.5174C84.4505 42.214 82.6733 42.5622 80.5658 42.5622H73.2384V38.4364H79.896C81.1284 38.4364 82.1375 38.2667 82.9234 37.9274C83.7093 37.5791 84.2897 37.0745 84.6648 36.4137C85.0488 35.7439 85.2408 34.9223 85.2408 33.9489C85.2408 32.9755 85.0488 32.145 84.6648 31.4574C84.2808 30.7608 83.6959 30.2339 82.91 29.8767C82.1241 29.5105 81.1105 29.3275 79.8692 29.3275H75.3147V52.6089H70.345ZM84.5175 40.1778L91.309 52.6089H85.7632L79.0923 40.1778H84.5175ZM101.34 53.0241C100.036 53.0241 98.8617 52.792 97.8168 52.3276C96.7809 51.8543 95.9593 51.1577 95.352 50.2379C94.7537 49.3181 94.4545 48.1839 94.4545 46.8354C94.4545 45.6745 94.6689 44.7145 95.0975 43.9554C95.5262 43.1963 96.1111 42.589 96.8523 42.1336C97.5935 41.6781 98.4285 41.3343 99.3573 41.1021C100.295 40.861 101.264 40.6869 102.264 40.5797C103.47 40.4547 104.448 40.3431 105.198 40.2448C105.948 40.1377 106.493 39.9769 106.832 39.7626C107.18 39.5393 107.354 39.1955 107.354 38.7311V38.6507C107.354 37.6416 107.055 36.8602 106.457 36.3065C105.859 35.7529 104.997 35.476 103.872 35.476C102.684 35.476 101.742 35.735 101.045 36.253C100.357 36.7709 99.8931 37.3826 99.652 38.0881L95.1243 37.4452C95.4815 36.1949 96.0709 35.1501 96.8925 34.3106C97.7141 33.4622 98.7188 32.8282 99.9065 32.4084C101.094 31.9798 102.407 31.7655 103.845 31.7655C104.836 31.7655 105.823 31.8815 106.805 32.1137C107.788 32.3459 108.685 32.7299 109.498 33.2657C110.31 33.7926 110.962 34.5115 111.453 35.4224C111.954 36.3333 112.204 37.4719 112.204 38.8383V52.6089H107.542V49.7824H107.381C107.087 50.354 106.671 50.8898 106.135 51.3899C105.609 51.8811 104.943 52.2785 104.139 52.5821C103.345 52.8768 102.411 53.0241 101.34 53.0241ZM102.599 49.4609C103.572 49.4609 104.416 49.2689 105.131 48.8849C105.845 48.492 106.394 47.974 106.778 47.331C107.171 46.6881 107.368 45.987 107.368 45.228V42.8034C107.216 42.9284 106.957 43.0445 106.591 43.1516C106.234 43.2588 105.832 43.3526 105.385 43.433C104.939 43.5133 104.497 43.5848 104.059 43.6473C103.622 43.7098 103.242 43.7634 102.921 43.808C102.197 43.9063 101.55 44.067 100.978 44.2903C100.407 44.5135 99.9556 44.8261 99.6252 45.228C99.2948 45.6209 99.1296 46.1299 99.1296 46.755C99.1296 47.6481 99.4555 48.3223 100.107 48.7778C100.759 49.2332 101.59 49.4609 102.599 49.4609ZM117.834 60.3247V32.0334H122.603V35.4358H122.884C123.134 34.9357 123.487 34.4044 123.942 33.8418C124.398 33.2702 125.014 32.7835 125.791 32.3816C126.568 31.9708 127.559 31.7655 128.765 31.7655C130.354 31.7655 131.788 32.1718 133.065 32.9844C134.351 33.7882 135.369 34.9804 136.119 36.561C136.878 38.1328 137.258 40.0617 137.258 42.3479C137.258 44.6073 136.887 46.5273 136.146 48.108C135.404 49.6887 134.395 50.8943 133.118 51.7248C131.841 52.5553 130.395 52.9706 128.778 52.9706C127.599 52.9706 126.621 52.7741 125.845 52.3812C125.068 51.9882 124.442 51.5149 123.969 50.9612C123.505 50.3986 123.143 49.8673 122.884 49.3672H122.683V60.3247H117.834ZM122.589 42.3211C122.589 43.6517 122.777 44.8172 123.152 45.8174C123.536 46.8176 124.085 47.599 124.8 48.1616C125.523 48.7153 126.398 48.9921 127.425 48.9921C128.497 48.9921 129.394 48.7063 130.118 48.1348C130.841 47.5543 131.386 46.764 131.752 45.7638C132.127 44.7546 132.315 43.6071 132.315 42.3211C132.315 41.0441 132.131 39.9099 131.765 38.9187C131.399 37.9274 130.854 37.1505 130.131 36.5878C129.408 36.0252 128.506 35.7439 127.425 35.7439C126.389 35.7439 125.51 36.0163 124.786 36.561C124.063 37.1058 123.514 37.8693 123.139 38.8517C122.772 39.834 122.589 40.9905 122.589 42.3211ZM148.085 53.0241C146.782 53.0241 145.607 52.792 144.562 52.3276C143.526 51.8543 142.705 51.1577 142.098 50.2379C141.499 49.3181 141.2 48.1839 141.2 46.8354C141.2 45.6745 141.414 44.7145 141.843 43.9554C142.272 43.1963 142.857 42.589 143.598 42.1336C144.339 41.6781 145.174 41.3343 146.103 41.1021C147.041 40.861 148.009 40.6869 149.01 40.5797C150.215 40.4547 151.193 40.3431 151.943 40.2448C152.693 40.1377 153.238 39.9769 153.578 39.7626C153.926 39.5393 154.1 39.1955 154.1 38.7311V38.6507C154.1 37.6416 153.801 36.8602 153.202 36.3065C152.604 35.7529 151.742 35.476 150.617 35.476C149.429 35.476 148.487 35.735 147.791 36.253C147.103 36.7709 146.639 37.3826 146.398 38.0881L141.87 37.4452C142.227 36.1949 142.816 35.1501 143.638 34.3106C144.46 33.4622 145.464 32.8282 146.652 32.4084C147.84 31.9798 149.153 31.7655 150.59 31.7655C151.582 31.7655 152.568 31.8815 153.551 32.1137C154.533 32.3459 155.431 32.7299 156.243 33.2657C157.056 33.7926 157.708 34.5115 158.199 35.4224C158.699 36.3333 158.949 37.4719 158.949 38.8383V52.6089H154.288V49.7824H154.127C153.832 50.354 153.417 50.8898 152.881 51.3899C152.354 51.8811 151.689 52.2785 150.885 52.5821C150.09 52.8768 149.157 53.0241 148.085 53.0241ZM149.345 49.4609C150.318 49.4609 151.162 49.2689 151.876 48.8849C152.591 48.492 153.14 47.974 153.524 47.331C153.917 46.6881 154.113 45.987 154.113 45.228V42.8034C153.962 42.9284 153.703 43.0445 153.336 43.1516C152.979 43.2588 152.577 43.3526 152.131 43.433C151.684 43.5133 151.242 43.5848 150.805 43.6473C150.367 43.7098 149.988 43.7634 149.666 43.808C148.943 43.9063 148.295 44.067 147.724 44.2903C147.152 44.5135 146.701 44.8261 146.371 45.228C146.04 45.6209 145.875 46.1299 145.875 46.755C145.875 47.6481 146.201 48.3223 146.853 48.7778C147.505 49.2332 148.335 49.4609 149.345 49.4609ZM174.854 32.0334V35.7841H163.026V32.0334H174.854ZM165.946 27.1038H170.795V46.4202C170.795 47.0721 170.893 47.5722 171.09 47.9205C171.295 48.2598 171.563 48.492 171.894 48.617C172.224 48.742 172.59 48.8046 172.992 48.8046C173.296 48.8046 173.572 48.7822 173.822 48.7376C174.081 48.6929 174.278 48.6527 174.412 48.617L175.229 52.408C174.97 52.4973 174.599 52.5955 174.117 52.7027C173.644 52.8098 173.063 52.8723 172.376 52.8902C171.161 52.9259 170.067 52.7428 169.094 52.341C168.12 51.9302 167.348 51.2961 166.776 50.4388C166.214 49.5815 165.937 48.5099 165.946 47.2239V27.1038Z" fill="#104779"/>
</svg>
